<?xml version="1.0" encoding="UTF-8"?>
<svg width="492px" height="171px" viewBox="0 0 492 171" version="1.1" xmlns="http://www.w3.org/2000/svg" xmlns:xlink="http://www.w3.org/1999/xlink">
    <title>более</title>
    <g id="Page-1" stroke="none" stroke-width="1" fill="none" fill-rule="evenodd">
        <g id="Custom-Preset-Copy-38" transform="translate(-361.000000, -8020.000000)" fill="#000000" fill-rule="nonzero">
            <path d="M403.45,8190.99 C412.19,8190.99 420.278333,8189.035 427.715,8185.125 C435.151667,8181.215 441.055,8175.65667 445.425,8168.45 C449.795,8161.24333 451.98,8152.81 451.98,8143.15 C451.98,8135.94333 450.523333,8129.005 447.61,8122.335 C444.696667,8115.665 439.905,8110.10667 433.235,8105.66 C426.565,8101.21333 418.016667,8098.99 407.59,8098.99 C400.843333,8098.99 393.253333,8100.90667 384.82,8104.74 C376.386667,8108.57333 370.176667,8115.70333 366.19,8126.13 C367.876667,8106.35 372.4,8091.055 379.76,8080.245 C387.12,8069.435 397.623333,8061.27 411.27,8055.75 L411.27,8055.75 L415.64,8053.91 C422.233333,8051.30333 427.293333,8048.965 430.82,8046.895 C434.346667,8044.825 437.451667,8041.835 440.135,8037.925 C442.818333,8034.015 444.85,8028.61 446.23,8021.71 C446.536667,8021.25 446.268333,8020.905 445.425,8020.675 C444.581667,8020.445 444.083333,8020.63667 443.93,8021.25 C441.63,8026.61667 438.371667,8030.68 434.155,8033.44 C429.938333,8036.2 424.226667,8038.96 417.02,8041.72 L417.02,8041.72 L411.96,8043.79 C400.92,8048.23667 391.796667,8053.94833 384.59,8060.925 C377.383333,8067.90167 371.786667,8077.37 367.8,8089.33 C363.813333,8101.29 361.82,8116.54667 361.82,8135.1 C361.82,8147.82667 363.775,8158.36833 367.685,8166.725 C371.595,8175.08167 376.693333,8181.215 382.98,8185.125 C389.266667,8189.035 396.09,8190.99 403.45,8190.99 Z M409.89,8186.85 C399.003333,8186.85 390.608333,8182.55667 384.705,8173.97 C378.801667,8165.38333 375.85,8154.57333 375.85,8141.54 C375.85,8130.96 378.418333,8121.83667 383.555,8114.17 C388.691667,8106.50333 395.783333,8102.67 404.83,8102.67 C411.576667,8102.67 417.518333,8104.70167 422.655,8108.765 C427.791667,8112.82833 431.778333,8118.425 434.615,8125.555 C437.451667,8132.685 438.87,8140.62 438.87,8149.36 C438.87,8162.24 436.263333,8171.70833 431.05,8177.765 C425.836667,8183.82167 418.783333,8186.85 409.89,8186.85 Z M513.39,8190.99 C522.13,8190.99 530.18,8189.07333 537.54,8185.24 C544.9,8181.40667 550.765,8175.88667 555.135,8168.68 C559.505,8161.47333 561.69,8153.11667 561.69,8143.61 C561.69,8135.48333 559.888333,8127.77833 556.285,8120.495 C552.681667,8113.21167 547.545,8107.34667 540.875,8102.9 C534.205,8098.45333 526.423333,8096.23 517.53,8096.23 C509.71,8096.23 502.081667,8097.955 494.645,8101.405 C487.208333,8104.855 481.075,8110.06833 476.245,8117.045 C471.415,8124.02167 469,8132.49333 469,8142.46 C469,8151.2 470.84,8159.28833 474.52,8166.725 C478.2,8174.16167 483.413333,8180.065 490.16,8184.435 C496.906667,8188.805 504.65,8190.99 513.39,8190.99 Z M519.83,8186.85 C512.47,8186.85 505.953333,8184.51167 500.28,8179.835 C494.606667,8175.15833 490.16,8168.94833 486.94,8161.205 C483.72,8153.46167 482.11,8144.99 482.11,8135.79 C482.11,8124.44333 484.563333,8115.74167 489.47,8109.685 C494.376667,8103.62833 501.2,8100.6 509.94,8100.6 C517.453333,8100.6 524.123333,8102.74667 529.95,8107.04 C535.776667,8111.33333 540.3,8117.19833 543.52,8124.635 C546.74,8132.07167 548.35,8140.39 548.35,8149.59 C548.35,8162.47 545.82,8171.9 540.76,8177.88 C535.7,8183.86 528.723333,8186.85 519.83,8186.85 Z M583.08,8189.84 C590.746667,8189.84 596.841667,8186.275 601.365,8179.145 C605.888333,8172.015 609.185,8163.62 611.255,8153.96 C613.325,8144.3 615.28,8132.26333 617.12,8117.85 C617.733333,8113.40333 618.385,8110.26 619.075,8108.42 C619.765,8106.58 620.953333,8105.315 622.64,8104.625 C624.326667,8103.935 627.01,8103.59 630.69,8103.59 L630.69,8103.59 L631.84,8103.59 C636.286667,8103.59 639.2,8103.82 640.58,8104.28 C641.96,8104.74 642.841667,8105.81333 643.225,8107.5 C643.608333,8109.18667 643.8,8112.63667 643.8,8117.85 L643.8,8117.85 L643.8,8169.37 C643.8,8174.43 643.416667,8177.995 642.65,8180.065 C641.883333,8182.135 640.58,8183.43833 638.74,8183.975 C636.9,8184.51167 633.526667,8184.93333 628.62,8185.24 C628.16,8185.24 627.93,8185.7 627.93,8186.62 C627.93,8187.54 628.16,8188 628.62,8188 C632.3,8188 635.213333,8187.92333 637.36,8187.77 L637.36,8187.77 L649.55,8187.54 L660.82,8187.77 C662.966667,8187.92333 665.956667,8188 669.79,8188 C670.096667,8188 670.25,8187.54 670.25,8186.62 C670.25,8185.7 670.096667,8185.24 669.79,8185.24 C664.883333,8184.93333 661.51,8184.51167 659.67,8183.975 C657.83,8183.43833 656.526667,8182.135 655.76,8180.065 C654.993333,8177.995 654.61,8174.43 654.61,8169.37 L654.61,8169.37 L654.61,8118.31 C654.61,8113.09667 655.031667,8109.41667 655.875,8107.27 C656.718333,8105.12333 658.06,8103.78167 659.9,8103.245 C661.74,8102.70833 665.036667,8102.28667 669.79,8101.98 C670.096667,8101.98 670.25,8101.52 670.25,8100.6 C670.25,8099.68 670.096667,8099.22 669.79,8099.22 L669.79,8099.22 L593.66,8099.22 C593.2,8099.22 592.97,8099.68 592.97,8100.6 C592.97,8101.52 593.2,8101.98 593.66,8101.98 C598.873333,8102.28667 602.63,8102.70833 604.93,8103.245 C607.23,8103.78167 608.801667,8104.74 609.645,8106.12 C610.488333,8107.5 610.91,8109.8 610.91,8113.02 C610.91,8122.52667 609.99,8132.14833 608.15,8141.885 C606.31,8151.62167 603.55,8159.78667 599.87,8166.38 C596.19,8172.97333 591.59,8176.27 586.07,8176.27 C584.843333,8176.27 583.731667,8176.155 582.735,8175.925 C581.738333,8175.695 580.78,8175.58 579.86,8175.58 C578.02,8175.58 576.486667,8176.27 575.26,8177.65 C574.033333,8179.03 573.42,8180.79333 573.42,8182.94 C573.42,8185.08667 574.263333,8186.77333 575.95,8188 C577.636667,8189.22667 580.013333,8189.84 583.08,8189.84 Z M727.75,8190.76 C739.556667,8190.76 750.52,8186.46667 760.64,8177.88 C760.946667,8177.42 760.908333,8176.92167 760.525,8176.385 C760.141667,8175.84833 759.72,8175.58 759.26,8175.58 L759.26,8175.58 L759.03,8175.58 C752.13,8180.79333 744.156667,8183.4 735.11,8183.4 C723.763333,8183.4 714.831667,8179.18333 708.315,8170.75 C701.798333,8162.31667 698.54,8151.35333 698.54,8137.86 C698.54,8133.72 698.923333,8129.50333 699.69,8125.21 L699.69,8125.21 L756.73,8124.98 C757.803333,8124.98 758.531667,8124.59667 758.915,8123.83 C759.298333,8123.06333 759.49,8121.76 759.49,8119.92 C759.49,8112.86667 757.266667,8107.30833 752.82,8103.245 C748.373333,8099.18167 742.163333,8097.15 734.19,8097.15 C725.143333,8097.15 716.901667,8099.335 709.465,8103.705 C702.028333,8108.075 696.163333,8114.01667 691.87,8121.53 C687.576667,8129.04333 685.43,8137.4 685.43,8146.6 C685.43,8154.42 687.04,8161.665 690.26,8168.335 C693.48,8175.005 698.31,8180.41 704.75,8184.55 C711.19,8188.69 718.856667,8190.76 727.75,8190.76 Z M700.38,8122.68 C702.22,8115.93333 705.325,8110.75833 709.695,8107.155 C714.065,8103.55167 719.623333,8101.75 726.37,8101.75 C732.196667,8101.75 736.873333,8103.475 740.4,8106.925 C743.926667,8110.375 745.69,8115.24333 745.69,8121.53 L745.69,8121.53 L700.38,8122.68 Z M819.52,8190.76 C831.326667,8190.76 842.29,8186.46667 852.41,8177.88 C852.716667,8177.42 852.678333,8176.92167 852.295,8176.385 C851.911667,8175.84833 851.49,8175.58 851.03,8175.58 L851.03,8175.58 L850.8,8175.58 C843.9,8180.79333 835.926667,8183.4 826.88,8183.4 C815.533333,8183.4 806.601667,8179.18333 800.085,8170.75 C793.568333,8162.31667 790.31,8151.35333 790.31,8137.86 C790.31,8133.72 790.693333,8129.50333 791.46,8125.21 L791.46,8125.21 L848.5,8124.98 C849.573333,8124.98 850.301667,8124.59667 850.685,8123.83 C851.068333,8123.06333 851.26,8121.76 851.26,8119.92 C851.26,8112.86667 849.036667,8107.30833 844.59,8103.245 C840.143333,8099.18167 833.933333,8097.15 825.96,8097.15 C816.913333,8097.15 808.671667,8099.335 801.235,8103.705 C793.798333,8108.075 787.933333,8114.01667 783.64,8121.53 C779.346667,8129.04333 777.2,8137.4 777.2,8146.6 C777.2,8154.42 778.81,8161.665 782.03,8168.335 C785.25,8175.005 790.08,8180.41 796.52,8184.55 C802.96,8188.69 810.626667,8190.76 819.52,8190.76 Z M792.15,8122.68 C793.99,8115.93333 797.095,8110.75833 801.465,8107.155 C805.835,8103.55167 811.393333,8101.75 818.14,8101.75 C823.966667,8101.75 828.643333,8103.475 832.17,8106.925 C835.696667,8110.375 837.46,8115.24333 837.46,8121.53 L837.46,8121.53 L792.15,8122.68 Z" id="более"></path>
        </g>
    </g>
</svg>