<?xml version="1.0" encoding="UTF-8"?>
<svg width="260px" height="329px" viewBox="0 0 260 329" version="1.1" xmlns="http://www.w3.org/2000/svg" xmlns:xlink="http://www.w3.org/1999/xlink">
    <title>2</title>
    <g id="Page-1" stroke="none" stroke-width="1" fill="none" fill-rule="evenodd">
        <g id="Custom-Preset-Copy-38" transform="translate(-907.000000, -3859.000000)" fill="#000000" fill-rule="nonzero">
            <g id="Group-5" transform="translate(50.000000, 3659.000000)">
                <path d="M1083.2,529 C1086.93333,529 1089.33333,526.6 1090.4,521.8 L1090.4,521.8 L1116,438.6 C1116.53333,437.533333 1116.13333,436.466667 1114.8,435.4 C1113.46667,434.333333 1112,433.8 1110.4,433.8 C1108.8,433.8 1107.46667,434.6 1106.4,436.2 C1100,453.8 1091.6,466.2 1081.2,473.4 C1070.8,480.6 1054.66667,485.133333 1032.8,487 C1010.93333,488.866667 974.133333,489.8 922.4,489.8 C920.8,489.8 919.733333,489.4 919.2,488.6 C918.666667,487.8 919.2,487.133333 920.8,486.6 C972,447.666667 1009.86667,417.533333 1034.4,396.2 C1058.93333,374.866667 1077.6,354.333333 1090.4,334.6 C1103.2,314.866667 1109.6,294.066667 1109.6,272.2 C1109.6,253 1103.6,237.8 1091.6,226.6 C1079.6,215.4 1063.2,209.8 1042.4,209.8 C1028,209.8 1010.4,213.266667 989.6,220.2 C978.4,223.933333 970.4,225.8 965.6,225.8 C960.266667,225.8 957.6,222.866667 957.6,217 C957.6,213.8 958.4,209.533333 960,204.2 C960.533333,202.066667 959.6,200.733333 957.2,200.2 C954.8,199.666667 953.066667,200.2 952,201.8 L952,201.8 L905.6,320.2 C905.066667,321.8 905.6,323.133333 907.2,324.2 C908.8,325.266667 910.4,325.8 912,325.8 C913.066667,325.8 914.133333,325.266667 915.2,324.2 C943.466667,259.666667 976,227.4 1012.8,227.4 C1028.26667,227.4 1040.53333,232.333333 1049.6,242.2 C1058.66667,252.066667 1063.2,265 1063.2,281 C1063.2,302.866667 1056.4,324.733333 1042.8,346.6 C1029.2,368.466667 1008.13333,392.466667 979.6,418.6 C951.066667,444.733333 911.2,477.8 860,517.8 C857.866667,519.933333 857.333333,522.333333 858.4,525 C859.466667,527.666667 861.333333,529 864,529 L864,529 L1083.2,529 Z" id="2"></path>
            </g>
        </g>
    </g>
</svg>