<?xml version="1.0" encoding="UTF-8"?>
<svg width="1318px" height="340px" viewBox="0 0 1318 340" version="1.1" xmlns="http://www.w3.org/2000/svg" xmlns:xlink="http://www.w3.org/1999/xlink">
    <title>2000</title>
    <g id="Page-1" stroke="none" stroke-width="1" fill="none" fill-rule="evenodd">
        <g id="Custom-Preset-Copy-38" transform="translate(-50.000000, -4483.000000)" fill="#000000" fill-rule="nonzero">
            <g id="Group-5" transform="translate(50.000000, 3659.000000)">
                <path d="M226.2,1153 C229.933333,1153 232.333333,1150.6 233.4,1145.8 L233.4,1145.8 L259,1062.6 C259.533333,1061.53333 259.133333,1060.46667 257.8,1059.4 C256.466667,1058.33333 255,1057.8 253.4,1057.8 C251.8,1057.8 250.466667,1058.6 249.4,1060.2 C243,1077.8 234.6,1090.2 224.2,1097.4 C213.8,1104.6 197.666667,1109.13333 175.8,1111 C153.933333,1112.86667 117.133333,1113.8 65.4,1113.8 C63.8,1113.8 62.7333333,1113.4 62.2,1112.6 C61.6666667,1111.8 62.2,1111.13333 63.8,1110.6 C115,1071.66667 152.866667,1041.53333 177.4,1020.2 C201.933333,998.866667 220.6,978.333333 233.4,958.6 C246.2,938.866667 252.6,918.066667 252.6,896.2 C252.6,877 246.6,861.8 234.6,850.6 C222.6,839.4 206.2,833.8 185.4,833.8 C171,833.8 153.4,837.266667 132.6,844.2 C121.4,847.933333 113.4,849.8 108.6,849.8 C103.266667,849.8 100.6,846.866667 100.6,841 C100.6,837.8 101.4,833.533333 103,828.2 C103.533333,826.066667 102.6,824.733333 100.2,824.2 C97.8,823.666667 96.0666667,824.2 95,825.8 L95,825.8 L48.6,944.2 C48.0666667,945.8 48.6,947.133333 50.2,948.2 C51.8,949.266667 53.4,949.8 55,949.8 C56.0666667,949.8 57.1333333,949.266667 58.2,948.2 C86.4666667,883.666667 119,851.4 155.8,851.4 C171.266667,851.4 183.533333,856.333333 192.6,866.2 C201.666667,876.066667 206.2,889 206.2,905 C206.2,926.866667 199.4,948.733333 185.8,970.6 C172.2,992.466667 151.133333,1016.46667 122.6,1042.6 C94.0666667,1068.73333 54.2,1101.8 3,1141.8 C0.866666667,1143.93333 0.333333333,1146.33333 1.4,1149 C2.46666667,1151.66667 4.33333333,1153 7,1153 L7,1153 L226.2,1153 Z M435.8,1163.4 C464.066667,1163.4 490.733333,1156.33333 515.8,1142.2 C540.866667,1128.06667 561.933333,1108.6 579,1083.8 C596.066667,1059 607.533333,1030.6 613.4,998.6 C615.533333,987.4 616.6,975.133333 616.6,961.8 C616.6,923.4 605.533333,892.466667 583.4,869 C561.266667,845.533333 531.8,833.8 495,833.8 C466.733333,833.8 439.933333,840.733333 414.6,854.6 C389.266667,868.466667 367.933333,887.666667 350.6,912.2 C333.266667,936.733333 321.933333,964.733333 316.6,996.2 C314.466667,1007.4 313.4,1019.66667 313.4,1033 C313.4,1071.93333 324.6,1103.4 347,1127.4 C369.4,1151.4 399,1163.4 435.8,1163.4 Z M447,1152.2 C420.866667,1152.2 400.6,1141.66667 386.2,1120.6 C371.8,1099.53333 364.6,1071.4 364.6,1036.2 C364.6,1022.86667 365.933333,1007.4 368.6,989.8 C376.066667,946.6 390.333333,911.666667 411.4,885 C432.466667,858.333333 457.4,845 486.2,845 C509.666667,845 528.6,854.466667 543,873.4 C557.4,892.333333 564.6,919.666667 564.6,955.4 C564.6,971.4 563,989 559.8,1008.2 C552.333333,1051.93333 539,1086.86667 519.8,1113 C500.6,1139.13333 476.333333,1152.2 447,1152.2 Z M786.2,1163.4 C814.466667,1163.4 841.133333,1156.33333 866.2,1142.2 C891.266667,1128.06667 912.333333,1108.6 929.4,1083.8 C946.466667,1059 957.933333,1030.6 963.8,998.6 C965.933333,987.4 967,975.133333 967,961.8 C967,923.4 955.933333,892.466667 933.8,869 C911.666667,845.533333 882.2,833.8 845.4,833.8 C817.133333,833.8 790.333333,840.733333 765,854.6 C739.666667,868.466667 718.333333,887.666667 701,912.2 C683.666667,936.733333 672.333333,964.733333 667,996.2 C664.866667,1007.4 663.8,1019.66667 663.8,1033 C663.8,1071.93333 675,1103.4 697.4,1127.4 C719.8,1151.4 749.4,1163.4 786.2,1163.4 Z M797.4,1152.2 C771.266667,1152.2 751,1141.66667 736.6,1120.6 C722.2,1099.53333 715,1071.4 715,1036.2 C715,1022.86667 716.333333,1007.4 719,989.8 C726.466667,946.6 740.733333,911.666667 761.8,885 C782.866667,858.333333 807.8,845 836.6,845 C860.066667,845 879,854.466667 893.4,873.4 C907.8,892.333333 915,919.666667 915,955.4 C915,971.4 913.4,989 910.2,1008.2 C902.733333,1051.93333 889.4,1086.86667 870.2,1113 C851,1139.13333 826.733333,1152.2 797.4,1152.2 Z M1136.6,1163.4 C1164.86667,1163.4 1191.53333,1156.33333 1216.6,1142.2 C1241.66667,1128.06667 1262.73333,1108.6 1279.8,1083.8 C1296.86667,1059 1308.33333,1030.6 1314.2,998.6 C1316.33333,987.4 1317.4,975.133333 1317.4,961.8 C1317.4,923.4 1306.33333,892.466667 1284.2,869 C1262.06667,845.533333 1232.6,833.8 1195.8,833.8 C1167.53333,833.8 1140.73333,840.733333 1115.4,854.6 C1090.06667,868.466667 1068.73333,887.666667 1051.4,912.2 C1034.06667,936.733333 1022.73333,964.733333 1017.4,996.2 C1015.26667,1007.4 1014.2,1019.66667 1014.2,1033 C1014.2,1071.93333 1025.4,1103.4 1047.8,1127.4 C1070.2,1151.4 1099.8,1163.4 1136.6,1163.4 Z M1147.8,1152.2 C1121.66667,1152.2 1101.4,1141.66667 1087,1120.6 C1072.6,1099.53333 1065.4,1071.4 1065.4,1036.2 C1065.4,1022.86667 1066.73333,1007.4 1069.4,989.8 C1076.86667,946.6 1091.13333,911.666667 1112.2,885 C1133.26667,858.333333 1158.2,845 1187,845 C1210.46667,845 1229.4,854.466667 1243.8,873.4 C1258.2,892.333333 1265.4,919.666667 1265.4,955.4 C1265.4,971.4 1263.8,989 1260.6,1008.2 C1253.13333,1051.93333 1239.8,1086.86667 1220.6,1113 C1201.4,1139.13333 1177.13333,1152.2 1147.8,1152.2 Z" id="2000"></path>
            </g>
        </g>
    </g>
</svg>