<?xml version="1.0" encoding="UTF-8"?>
<svg width="649px" height="540px" viewBox="0 0 649 540" version="1.1" xmlns="http://www.w3.org/2000/svg" xmlns:xlink="http://www.w3.org/1999/xlink">
    <title>26</title>
    <g id="Page-1" stroke="none" stroke-width="1" fill="none" fill-rule="evenodd">
        <g id="Custom-Preset-Copy-38" transform="translate(-51.000000, -3659.000000)" fill="#000000" fill-rule="nonzero">
            <g id="Group-5" transform="translate(50.000000, 3659.000000)">
                <path d="M227.2,529 C230.933333,529 233.333333,526.6 234.4,521.8 L234.4,521.8 L260,438.6 C260.533333,437.533333 260.133333,436.466667 258.8,435.4 C257.466667,434.333333 256,433.8 254.4,433.8 C252.8,433.8 251.466667,434.6 250.4,436.2 C244,453.8 235.6,466.2 225.2,473.4 C214.8,480.6 198.666667,485.133333 176.8,487 C154.933333,488.866667 118.133333,489.8 66.4,489.8 C64.8,489.8 63.7333333,489.4 63.2,488.6 C62.6666667,487.8 63.2,487.133333 64.8,486.6 C116,447.666667 153.866667,417.533333 178.4,396.2 C202.933333,374.866667 221.6,354.333333 234.4,334.6 C247.2,314.866667 253.6,294.066667 253.6,272.2 C253.6,253 247.6,237.8 235.6,226.6 C223.6,215.4 207.2,209.8 186.4,209.8 C172,209.8 154.4,213.266667 133.6,220.2 C122.4,223.933333 114.4,225.8 109.6,225.8 C104.266667,225.8 101.6,222.866667 101.6,217 C101.6,213.8 102.4,209.533333 104,204.2 C104.533333,202.066667 103.6,200.733333 101.2,200.2 C98.8,199.666667 97.0666667,200.2 96,201.8 L96,201.8 L49.6,320.2 C49.0666667,321.8 49.6,323.133333 51.2,324.2 C52.8,325.266667 54.4,325.8 56,325.8 C57.0666667,325.8 58.1333333,325.266667 59.2,324.2 C87.4666667,259.666667 120,227.4 156.8,227.4 C172.266667,227.4 184.533333,232.333333 193.6,242.2 C202.666667,252.066667 207.2,265 207.2,281 C207.2,302.866667 200.4,324.733333 186.8,346.6 C173.2,368.466667 152.133333,392.466667 123.6,418.6 C95.0666667,444.733333 55.2,477.8 4,517.8 C1.86666667,519.933333 1.33333333,522.333333 2.4,525 C3.46666667,527.666667 5.33333333,529 8,529 L8,529 L227.2,529 Z M444,539.4 C468.533333,539.4 491.866667,533.8 514,522.6 C536.133333,511.4 554.8,496.333333 570,477.4 C585.2,458.466667 594.666667,437.8 598.4,415.4 C600,407.4 600.8,399.133333 600.8,390.6 C600.8,365.533333 593.866667,344.733333 580,328.2 C566.133333,311.666667 545.066667,303.4 516.8,303.4 C475.2,303.4 438.666667,320.466667 407.2,354.6 C406.666667,355.666667 406.933333,357 408,358.6 C409.066667,360.2 410.4,361 412,361 L412,361 L413.6,360.2 C429.066667,347.933333 442.666667,339 454.4,333.4 C466.133333,327.8 477.866667,325 489.6,325 C509.333333,325 524.133333,332.066667 534,346.2 C543.866667,360.333333 548.8,379.4 548.8,403.4 C548.8,414.066667 548,425 546.4,436.2 C541.6,464.466667 532.266667,486.2 518.4,501.4 C504.533333,516.6 487.466667,524.2 467.2,524.2 C436.266667,524.2 412.4,512.866667 395.6,490.2 C378.8,467.533333 370.4,437.8 370.4,401 C370.4,382.866667 372.266667,365.266667 376,348.2 C382.933333,306.066667 398.266667,263.4 422,220.2 C445.733333,177 476.933333,136.866667 515.6,99.8 C554.266667,62.7333333 598.4,32.7333333 648,9.8 C649.6,8.73333333 650,6.73333333 649.2,3.8 C648.4,0.866666667 646.933333,-0.333333333 644.8,0.2 C589.333333,20.4666667 538.933333,49.5333333 493.6,87.4 C448.266667,125.266667 411.066667,168.2 382,216.2 C352.933333,264.2 333.866667,313 324.8,362.6 C321.066667,379.666667 319.2,396.733333 319.2,413.8 C319.2,453.8 330.266667,484.733333 352.4,506.6 C374.533333,528.466667 405.066667,539.4 444,539.4 Z" id="26"></path>
            </g>
        </g>
    </g>
</svg>