<?xml version="1.0" encoding="UTF-8"?>
<svg width="984px" height="123px" viewBox="0 0 984 123" version="1.1" xmlns="http://www.w3.org/2000/svg" xmlns:xlink="http://www.w3.org/1999/xlink">
    <title>довольных</title>
    <g id="Page-1" stroke="none" stroke-width="1" fill="none" fill-rule="evenodd">
        <g id="Custom-Preset-Copy-38" transform="translate(-125.000000, -8604.000000)" fill="#000000" fill-rule="nonzero">
            <path d="M220.82,8726.82 C221.663333,8726.82 222.085,8726.43667 222.085,8725.67 C222.085,8714.47667 222.391667,8705.66 223.005,8699.22 C223.158333,8697.68667 223.235,8696 223.235,8694.16 C223.235,8692.78 223.158333,8691.975 223.005,8691.745 C222.851667,8691.515 222.238333,8691.4 221.165,8691.4 C216.718333,8691.4 213.498333,8691.17 211.505,8690.71 C209.511667,8690.25 208.016667,8689.02333 207.02,8687.03 C206.023333,8685.03667 205.525,8681.81667 205.525,8677.37 L205.525,8677.37 L205.525,8626.31 C205.525,8621.71 205.946667,8618.29833 206.79,8616.075 C207.633333,8613.85167 209.281667,8612.28 211.735,8611.36 C214.188333,8610.44 218.021667,8609.98 223.235,8609.98 C223.541667,8609.98 223.695,8609.52 223.695,8608.6 C223.695,8607.68 223.541667,8607.22 223.235,8607.22 L223.235,8607.22 L182.295,8607.22 L146.185,8606.76 C145.878333,8606.76 145.725,8607.18167 145.725,8608.025 C145.725,8608.86833 145.878333,8609.29 146.185,8609.29 C151.705,8609.29 155.73,8610.24833 158.26,8612.165 C160.79,8614.08167 162.055,8617.49333 162.055,8622.4 C162.055,8624.54667 161.825,8627 161.365,8629.76 C154.618333,8670.54667 144.115,8690.94 129.855,8690.94 C128.628333,8690.94 127.516667,8691.17 126.52,8691.63 C125.523333,8692.09 125.025,8692.93333 125.025,8694.16 C125.025,8696 125.101667,8697.68667 125.255,8699.22 C125.868333,8705.66 126.175,8714.47667 126.175,8725.67 C126.175,8726.43667 126.596667,8726.82 127.44,8726.82 C128.283333,8726.82 128.705,8726.43667 128.705,8725.67 C128.705,8715.70333 130.43,8708.26667 133.88,8703.36 C137.33,8698.45333 142.275,8696 148.715,8696 L148.715,8696 L202.995,8696 C209.435,8696 213.805,8698.26167 216.105,8702.785 C218.405,8707.30833 219.555,8714.93667 219.555,8725.67 C219.555,8726.43667 219.976667,8726.82 220.82,8726.82 Z M171.601043,8691.17 L143.195,8691.17 C148.561667,8686.72333 153.008333,8679.67 156.535,8670.01 C160.061667,8660.35 163.588333,8645.4 167.115,8625.16 C168.035,8620.25333 169.376667,8616.765 171.14,8614.695 C172.903333,8612.625 176.085,8611.59 180.685,8611.59 L180.685,8611.59 L182.525,8611.59 C186.971667,8611.59 189.923333,8611.82 191.38,8612.28 C192.836667,8612.74 193.756667,8613.81333 194.14,8615.5 C194.523333,8617.18667 194.715,8620.63667 194.715,8625.85 L194.715,8677.37 C194.715,8682.12333 194.255,8685.38167 193.335,8687.145 C192.415,8688.90833 190.498333,8690.02 187.585,8690.48 C184.671667,8690.94 179.151667,8691.17 171.025,8691.17 L171.601043,8691.17 Z M283.725,8698.99 C292.465,8698.99 300.515,8697.07333 307.875,8693.24 C315.235,8689.40667 321.1,8683.88667 325.47,8676.68 C329.84,8669.47333 332.025,8661.11667 332.025,8651.61 C332.025,8643.48333 330.223333,8635.77833 326.62,8628.495 C323.016667,8621.21167 317.88,8615.34667 311.21,8610.9 C304.54,8606.45333 296.758333,8604.23 287.865,8604.23 C280.045,8604.23 272.416667,8605.955 264.98,8609.405 C257.543333,8612.855 251.41,8618.06833 246.58,8625.045 C241.75,8632.02167 239.335,8640.49333 239.335,8650.46 C239.335,8659.2 241.175,8667.28833 244.855,8674.725 C248.535,8682.16167 253.748333,8688.065 260.495,8692.435 C267.241667,8696.805 274.985,8698.99 283.725,8698.99 Z M290.165,8694.85 C282.805,8694.85 276.288333,8692.51167 270.615,8687.835 C264.941667,8683.15833 260.495,8676.94833 257.275,8669.205 C254.055,8661.46167 252.445,8652.99 252.445,8643.79 C252.445,8632.44333 254.898333,8623.74167 259.805,8617.685 C264.711667,8611.62833 271.535,8608.6 280.275,8608.6 C287.788333,8608.6 294.458333,8610.74667 300.285,8615.04 C306.111667,8619.33333 310.635,8625.19833 313.855,8632.635 C317.075,8640.07167 318.685,8648.39 318.685,8657.59 C318.685,8670.47 316.155,8679.9 311.095,8685.88 C306.035,8691.86 299.058333,8694.85 290.165,8694.85 Z M397.575,8696.46 C407.081667,8696.46 414.978333,8693.77667 421.265,8688.41 C427.551667,8683.04333 430.695,8676.22 430.695,8667.94 C430.695,8661.65333 428.701667,8656.785 424.715,8653.335 C420.728333,8649.885 414.595,8647.77667 406.315,8647.01 C411.375,8643.17667 415.093333,8639.42 417.47,8635.74 C419.846667,8632.06 421.035,8628.22667 421.035,8624.24 C421.035,8618.41333 418.735,8614.04333 414.135,8611.13 C409.535,8608.21667 402.941667,8606.76 394.355,8606.76 C391.135,8606.76 386.611667,8606.91333 380.785,8607.22 L380.785,8607.22 L368.825,8607.45 L348.125,8607.22 C347.665,8607.22 347.435,8607.68 347.435,8608.6 C347.435,8609.52 347.665,8609.98 348.125,8609.98 C352.571667,8609.98 355.83,8610.36333 357.9,8611.13 C359.97,8611.89667 361.35,8613.39167 362.04,8615.615 C362.73,8617.83833 363.075,8621.25 363.075,8625.85 L363.075,8625.85 L363.075,8677.37 C363.075,8681.97 362.73,8685.38167 362.04,8687.605 C361.35,8689.82833 359.97,8691.32333 357.9,8692.09 C355.83,8692.85667 352.495,8693.24 347.895,8693.24 C347.435,8693.24 347.205,8693.7 347.205,8694.62 C347.205,8695.54 347.435,8696 347.895,8696 C351.728333,8696 354.718333,8695.92333 356.865,8695.77 L356.865,8695.77 L368.825,8695.54 C371.738333,8695.54 376.875,8695.69333 384.235,8696 C390.981667,8696.30667 395.428333,8696.46 397.575,8696.46 Z M401.715,8646.78 L373.885,8646.78 L373.885,8626.31 C373.885,8621.55667 374.306667,8617.99167 375.15,8615.615 C375.993333,8613.23833 377.411667,8611.66667 379.405,8610.9 C381.398333,8610.13333 384.388333,8609.75 388.375,8609.75 C395.121667,8609.75 400.181667,8611.32167 403.555,8614.465 C406.928333,8617.60833 408.615,8622.55333 408.615,8629.3 C408.615,8633.28667 408.04,8636.66 406.89,8639.42 C405.74,8642.18 404.015,8644.63333 401.715,8646.78 L401.715,8646.78 Z M393.435,8693.01 C385.615,8693.01 380.401667,8691.86 377.795,8689.56 C375.188333,8687.26 373.885,8683.19667 373.885,8677.37 L373.885,8677.37 L373.885,8650.46 L390.905,8650.46 C400.105,8650.46 406.89,8652.49167 411.26,8656.555 C415.63,8660.61833 417.815,8666.17667 417.815,8673.23 C417.815,8686.41667 409.688333,8693.01 393.435,8693.01 Z M493.025,8698.99 C501.765,8698.99 509.815,8697.07333 517.175,8693.24 C524.535,8689.40667 530.4,8683.88667 534.77,8676.68 C539.14,8669.47333 541.325,8661.11667 541.325,8651.61 C541.325,8643.48333 539.523333,8635.77833 535.92,8628.495 C532.316667,8621.21167 527.18,8615.34667 520.51,8610.9 C513.84,8606.45333 506.058333,8604.23 497.165,8604.23 C489.345,8604.23 481.716667,8605.955 474.28,8609.405 C466.843333,8612.855 460.71,8618.06833 455.88,8625.045 C451.05,8632.02167 448.635,8640.49333 448.635,8650.46 C448.635,8659.2 450.475,8667.28833 454.155,8674.725 C457.835,8682.16167 463.048333,8688.065 469.795,8692.435 C476.541667,8696.805 484.285,8698.99 493.025,8698.99 Z M499.465,8694.85 C492.105,8694.85 485.588333,8692.51167 479.915,8687.835 C474.241667,8683.15833 469.795,8676.94833 466.575,8669.205 C463.355,8661.46167 461.745,8652.99 461.745,8643.79 C461.745,8632.44333 464.198333,8623.74167 469.105,8617.685 C474.011667,8611.62833 480.835,8608.6 489.575,8608.6 C497.088333,8608.6 503.758333,8610.74667 509.585,8615.04 C515.411667,8619.33333 519.935,8625.19833 523.155,8632.635 C526.375,8640.07167 527.985,8648.39 527.985,8657.59 C527.985,8670.47 525.455,8679.9 520.395,8685.88 C515.335,8691.86 508.358333,8694.85 499.465,8694.85 Z M562.715,8697.84 C570.381667,8697.84 576.476667,8694.275 581,8687.145 C585.523333,8680.015 588.82,8671.62 590.89,8661.96 C592.96,8652.3 594.915,8640.26333 596.755,8625.85 C597.368333,8621.40333 598.02,8618.26 598.71,8616.42 C599.4,8614.58 600.588333,8613.315 602.275,8612.625 C603.961667,8611.935 606.645,8611.59 610.325,8611.59 L610.325,8611.59 L611.475,8611.59 C615.921667,8611.59 618.835,8611.82 620.215,8612.28 C621.595,8612.74 622.476667,8613.81333 622.86,8615.5 C623.243333,8617.18667 623.435,8620.63667 623.435,8625.85 L623.435,8625.85 L623.435,8677.37 C623.435,8682.43 623.051667,8685.995 622.285,8688.065 C621.518333,8690.135 620.215,8691.43833 618.375,8691.975 C616.535,8692.51167 613.161667,8692.93333 608.255,8693.24 C607.795,8693.24 607.565,8693.7 607.565,8694.62 C607.565,8695.54 607.795,8696 608.255,8696 C611.935,8696 614.848333,8695.92333 616.995,8695.77 L616.995,8695.77 L629.185,8695.54 L640.455,8695.77 C642.601667,8695.92333 645.591667,8696 649.425,8696 C649.731667,8696 649.885,8695.54 649.885,8694.62 C649.885,8693.7 649.731667,8693.24 649.425,8693.24 C644.518333,8692.93333 641.145,8692.51167 639.305,8691.975 C637.465,8691.43833 636.161667,8690.135 635.395,8688.065 C634.628333,8685.995 634.245,8682.43 634.245,8677.37 L634.245,8677.37 L634.245,8626.31 C634.245,8621.09667 634.666667,8617.41667 635.51,8615.27 C636.353333,8613.12333 637.695,8611.78167 639.535,8611.245 C641.375,8610.70833 644.671667,8610.28667 649.425,8609.98 C649.731667,8609.98 649.885,8609.52 649.885,8608.6 C649.885,8607.68 649.731667,8607.22 649.425,8607.22 L649.425,8607.22 L573.295,8607.22 C572.835,8607.22 572.605,8607.68 572.605,8608.6 C572.605,8609.52 572.835,8609.98 573.295,8609.98 C578.508333,8610.28667 582.265,8610.70833 584.565,8611.245 C586.865,8611.78167 588.436667,8612.74 589.28,8614.12 C590.123333,8615.5 590.545,8617.8 590.545,8621.02 C590.545,8630.52667 589.625,8640.14833 587.785,8649.885 C585.945,8659.62167 583.185,8667.78667 579.505,8674.38 C575.825,8680.97333 571.225,8684.27 565.705,8684.27 C564.478333,8684.27 563.366667,8684.155 562.37,8683.925 C561.373333,8683.695 560.415,8683.58 559.495,8683.58 C557.655,8683.58 556.121667,8684.27 554.895,8685.65 C553.668333,8687.03 553.055,8688.79333 553.055,8690.94 C553.055,8693.08667 553.898333,8694.77333 555.585,8696 C557.271667,8697.22667 559.648333,8697.84 562.715,8697.84 Z M713.595,8696.46 C722.335,8696.46 729.58,8693.77667 735.33,8688.41 C741.08,8683.04333 743.955,8676.22 743.955,8667.94 C743.955,8659.81333 741.54,8653.795 736.71,8649.885 C731.88,8645.975 724.635,8644.02 714.975,8644.02 C705.621667,8644.02 697.265,8645.24667 689.905,8647.7 L689.905,8647.7 L689.905,8626.31 C689.905,8621.71 690.326667,8618.29833 691.17,8616.075 C692.013333,8613.85167 693.661667,8612.28 696.115,8611.36 C698.568333,8610.44 702.401667,8609.98 707.615,8609.98 C708.075,8609.98 708.305,8609.52 708.305,8608.6 C708.305,8607.68 708.075,8607.22 707.615,8607.22 C703.475,8607.22 700.178333,8607.29667 697.725,8607.45 L697.725,8607.45 L684.845,8607.68 L672.885,8607.45 C670.738333,8607.29667 667.825,8607.22 664.145,8607.22 C663.685,8607.22 663.455,8607.68 663.455,8608.6 C663.455,8609.52 663.685,8609.98 664.145,8609.98 C668.591667,8609.98 671.85,8610.36333 673.92,8611.13 C675.99,8611.89667 677.37,8613.39167 678.06,8615.615 C678.75,8617.83833 679.095,8621.25 679.095,8625.85 L679.095,8625.85 L679.095,8677.37 C679.095,8681.97 678.75,8685.38167 678.06,8687.605 C677.37,8689.82833 675.99,8691.32333 673.92,8692.09 C671.85,8692.85667 668.515,8693.24 663.915,8693.24 C663.455,8693.24 663.225,8693.7 663.225,8694.62 C663.225,8695.54 663.455,8696 663.915,8696 C667.748333,8696 670.738333,8695.92333 672.885,8695.77 L672.885,8695.77 L684.845,8695.54 C687.758333,8695.54 692.895,8695.69333 700.255,8696 C707.001667,8696.30667 711.448333,8696.46 713.595,8696.46 Z M709.455,8693.01 C701.635,8693.01 696.421667,8691.86 693.815,8689.56 C691.208333,8687.26 689.905,8683.19667 689.905,8677.37 L689.905,8677.37 L689.905,8650.69 C694.505,8648.85 700.178333,8647.93 706.925,8647.93 C715.358333,8647.93 721.568333,8650.19167 725.555,8654.715 C729.541667,8659.23833 731.535,8665.41 731.535,8673.23 C731.535,8679.67 729.695,8684.57667 726.015,8687.95 C722.335,8691.32333 716.815,8693.01 709.455,8693.01 Z M756.835,8696 C760.668333,8696 763.658333,8695.92333 765.805,8695.77 L765.805,8695.77 L777.765,8695.54 L789.035,8695.77 C791.181667,8695.92333 794.171667,8696 798.005,8696 C798.311667,8696 798.465,8695.54 798.465,8694.62 C798.465,8693.7 798.311667,8693.24 798.005,8693.24 C793.405,8693.24 790.07,8692.85667 788,8692.09 C785.93,8691.32333 784.55,8689.82833 783.86,8687.605 C783.17,8685.38167 782.825,8681.97 782.825,8677.37 L782.825,8677.37 L782.825,8653.68 L833.885,8653.68 L833.885,8677.37 C833.885,8681.97 833.501667,8685.38167 832.735,8687.605 C831.968333,8689.82833 830.55,8691.32333 828.48,8692.09 C826.41,8692.85667 823.151667,8693.24 818.705,8693.24 C818.245,8693.24 818.015,8693.7 818.015,8694.62 C818.015,8695.54 818.245,8696 818.705,8696 C822.385,8696 825.298333,8695.92333 827.445,8695.77 L827.445,8695.77 L839.635,8695.54 L850.905,8695.77 C853.051667,8695.92333 856.041667,8696 859.875,8696 C860.181667,8696 860.335,8695.54 860.335,8694.62 C860.335,8693.7 860.181667,8693.24 859.875,8693.24 C855.275,8693.24 851.94,8692.85667 849.87,8692.09 C847.8,8691.32333 846.42,8689.82833 845.73,8687.605 C845.04,8685.38167 844.695,8681.97 844.695,8677.37 L844.695,8677.37 L844.695,8626.31 C844.695,8621.71 845.078333,8618.29833 845.845,8616.075 C846.611667,8613.85167 848.03,8612.28 850.1,8611.36 C852.17,8610.44 855.428333,8609.98 859.875,8609.98 C860.181667,8609.98 860.335,8609.52 860.335,8608.6 C860.335,8607.68 860.181667,8607.22 859.875,8607.22 C856.195,8607.22 853.281667,8607.29667 851.135,8607.45 L851.135,8607.45 L839.635,8607.68 L827.675,8607.45 C825.528333,8607.29667 822.615,8607.22 818.935,8607.22 C818.475,8607.22 818.245,8607.68 818.245,8608.6 C818.245,8609.52 818.475,8609.98 818.935,8609.98 C823.381667,8609.98 826.64,8610.36333 828.71,8611.13 C830.78,8611.89667 832.16,8613.39167 832.85,8615.615 C833.54,8617.83833 833.885,8621.25 833.885,8625.85 L833.885,8625.85 L833.885,8649.54 L782.825,8649.54 L782.825,8626.31 C782.825,8621.71 783.208333,8618.29833 783.975,8616.075 C784.741667,8613.85167 786.16,8612.28 788.23,8611.36 C790.3,8610.44 793.558333,8609.98 798.005,8609.98 C798.311667,8609.98 798.465,8609.52 798.465,8608.6 C798.465,8607.68 798.311667,8607.22 798.005,8607.22 C794.325,8607.22 791.411667,8607.29667 789.265,8607.45 L789.265,8607.45 L777.765,8607.68 L765.805,8607.45 C763.658333,8607.29667 760.745,8607.22 757.065,8607.22 C756.605,8607.22 756.375,8607.68 756.375,8608.6 C756.375,8609.52 756.605,8609.98 757.065,8609.98 C761.511667,8609.98 764.77,8610.36333 766.84,8611.13 C768.91,8611.89667 770.29,8613.39167 770.98,8615.615 C771.67,8617.83833 772.015,8621.25 772.015,8625.85 L772.015,8625.85 L772.015,8677.37 C772.015,8681.97 771.67,8685.38167 770.98,8687.605 C770.29,8689.82833 768.91,8691.32333 766.84,8692.09 C764.77,8692.85667 761.435,8693.24 756.835,8693.24 C756.375,8693.24 756.145,8693.7 756.145,8694.62 C756.145,8695.54 756.375,8696 756.835,8696 Z M924.045,8696.46 C932.785,8696.46 940.03,8693.77667 945.78,8688.41 C951.53,8683.04333 954.405,8676.22 954.405,8667.94 C954.405,8659.81333 951.99,8653.795 947.16,8649.885 C942.33,8645.975 935.085,8644.02 925.425,8644.02 C916.071667,8644.02 907.715,8645.24667 900.355,8647.7 L900.355,8647.7 L900.355,8626.31 C900.355,8621.71 900.776667,8618.29833 901.62,8616.075 C902.463333,8613.85167 904.111667,8612.28 906.565,8611.36 C909.018333,8610.44 912.851667,8609.98 918.065,8609.98 C918.525,8609.98 918.755,8609.52 918.755,8608.6 C918.755,8607.68 918.525,8607.22 918.065,8607.22 C913.925,8607.22 910.628333,8607.29667 908.175,8607.45 L908.175,8607.45 L895.295,8607.68 L883.335,8607.45 C881.188333,8607.29667 878.275,8607.22 874.595,8607.22 C874.135,8607.22 873.905,8607.68 873.905,8608.6 C873.905,8609.52 874.135,8609.98 874.595,8609.98 C879.041667,8609.98 882.3,8610.36333 884.37,8611.13 C886.44,8611.89667 887.82,8613.39167 888.51,8615.615 C889.2,8617.83833 889.545,8621.25 889.545,8625.85 L889.545,8625.85 L889.545,8677.37 C889.545,8681.97 889.2,8685.38167 888.51,8687.605 C887.82,8689.82833 886.44,8691.32333 884.37,8692.09 C882.3,8692.85667 878.965,8693.24 874.365,8693.24 C873.905,8693.24 873.675,8693.7 873.675,8694.62 C873.675,8695.54 873.905,8696 874.365,8696 C878.198333,8696 881.188333,8695.92333 883.335,8695.77 L883.335,8695.77 L895.295,8695.54 C898.208333,8695.54 903.345,8695.69333 910.705,8696 C917.451667,8696.30667 921.898333,8696.46 924.045,8696.46 Z M961.535,8696 C965.368333,8696 968.358333,8695.92333 970.505,8695.77 L970.505,8695.77 L982.465,8695.54 L993.735,8695.77 C995.881667,8695.92333 998.795,8696 1002.475,8696 C1002.935,8696 1003.165,8695.54 1003.165,8694.62 C1003.165,8693.7 1002.935,8693.24 1002.475,8693.24 C998.028333,8693.24 994.77,8692.85667 992.7,8692.09 C990.63,8691.32333 989.25,8689.82833 988.56,8687.605 C987.87,8685.38167 987.525,8681.97 987.525,8677.37 L987.525,8677.37 L987.525,8626.31 C987.525,8621.71 987.87,8618.29833 988.56,8616.075 C989.25,8613.85167 990.63,8612.28 992.7,8611.36 C994.77,8610.44 998.028333,8609.98 1002.475,8609.98 C1002.935,8609.98 1003.165,8609.52 1003.165,8608.6 C1003.165,8607.68 1002.935,8607.22 1002.475,8607.22 C998.948333,8607.22 996.111667,8607.29667 993.965,8607.45 L993.965,8607.45 L982.465,8607.68 L970.505,8607.45 C968.358333,8607.29667 965.445,8607.22 961.765,8607.22 C961.305,8607.22 961.075,8607.68 961.075,8608.6 C961.075,8609.52 961.305,8609.98 961.765,8609.98 C966.211667,8609.98 969.47,8610.36333 971.54,8611.13 C973.61,8611.89667 974.99,8613.39167 975.68,8615.615 C976.37,8617.83833 976.715,8621.25 976.715,8625.85 L976.715,8625.85 L976.715,8677.37 C976.715,8681.97 976.37,8685.38167 975.68,8687.605 C974.99,8689.82833 973.61,8691.32333 971.54,8692.09 C969.47,8692.85667 966.135,8693.24 961.535,8693.24 C961.075,8693.24 960.845,8693.7 960.845,8694.62 C960.845,8695.54 961.075,8696 961.535,8696 Z M919.905,8693.01 C912.085,8693.01 906.871667,8691.86 904.265,8689.56 C901.658333,8687.26 900.355,8683.19667 900.355,8677.37 L900.355,8677.37 L900.355,8650.69 C904.955,8648.85 910.628333,8647.93 917.375,8647.93 C925.808333,8647.93 932.018333,8650.19167 936.005,8654.715 C939.991667,8659.23833 941.985,8665.41 941.985,8673.23 C941.985,8679.67 940.145,8684.57667 936.465,8687.95 C932.785,8691.32333 927.265,8693.01 919.905,8693.01 Z M1013.285,8696 C1016.505,8696 1018.88167,8695.92333 1020.415,8695.77 L1020.415,8695.77 L1028.465,8695.54 L1042.265,8695.77 C1044.25833,8695.92333 1047.325,8696 1051.465,8696 C1051.925,8696 1052.155,8695.54 1052.155,8694.62 C1052.155,8693.7 1051.925,8693.24 1051.465,8693.24 C1042.265,8693.24 1037.665,8691.55333 1037.665,8688.18 C1037.665,8686.95333 1038.08667,8685.535 1038.93,8683.925 C1039.77333,8682.315 1040.80833,8680.59 1042.035,8678.75 L1042.035,8678.75 L1057.215,8656.9 L1075.385,8684.27 C1077.37833,8687.49 1078.375,8689.56 1078.375,8690.48 C1078.375,8691.55333 1077.72333,8692.28167 1076.42,8692.665 C1075.11667,8693.04833 1073.00833,8693.24 1070.095,8693.24 C1069.635,8693.24 1069.405,8693.7 1069.405,8694.62 C1069.405,8695.54 1069.635,8696 1070.095,8696 C1073.775,8696 1076.68833,8695.92333 1078.835,8695.77 L1078.835,8695.77 L1093.325,8695.54 C1096.39167,8695.54 1098.69167,8695.61667 1100.225,8695.77 L1100.225,8695.77 L1107.585,8696 C1107.89167,8696 1108.045,8695.54 1108.045,8694.62 C1108.045,8693.7 1107.89167,8693.24 1107.585,8693.24 C1104.05833,8693.24 1100.225,8691.975 1096.085,8689.445 C1091.945,8686.915 1087.95833,8682.73667 1084.125,8676.91 L1084.125,8676.91 L1064.115,8646.78 L1079.525,8625.85 C1083.51167,8620.33 1087.65167,8616.305 1091.945,8613.775 C1096.23833,8611.245 1100.37833,8609.98 1104.365,8609.98 C1104.67167,8609.98 1104.825,8609.52 1104.825,8608.6 C1104.825,8607.68 1104.67167,8607.22 1104.365,8607.22 C1101.145,8607.22 1098.76833,8607.29667 1097.235,8607.45 L1097.235,8607.45 L1089.185,8607.68 L1075.385,8607.45 C1073.23833,8607.29667 1070.095,8607.22 1065.955,8607.22 C1065.64833,8607.22 1065.495,8607.68 1065.495,8608.6 C1065.495,8609.52 1065.64833,8609.98 1065.955,8609.98 C1071.16833,8609.98 1074.84833,8610.36333 1076.995,8611.13 C1079.14167,8611.89667 1080.215,8613.12333 1080.215,8614.81 C1080.215,8616.80333 1078.605,8620.02333 1075.385,8624.47 L1075.385,8624.47 L1062.275,8644.02 L1045.715,8618.95 C1043.72167,8615.73 1042.725,8613.66 1042.725,8612.74 C1042.725,8611.66667 1043.37667,8610.93833 1044.68,8610.555 C1045.98333,8610.17167 1048.09167,8609.98 1051.005,8609.98 C1051.31167,8609.98 1051.465,8609.52 1051.465,8608.6 C1051.465,8607.68 1051.31167,8607.22 1051.005,8607.22 C1047.325,8607.22 1044.41167,8607.29667 1042.265,8607.45 L1042.265,8607.45 L1027.775,8607.68 L1020.645,8607.45 C1019.11167,8607.29667 1016.735,8607.22 1013.515,8607.22 C1013.20833,8607.22 1013.055,8607.68 1013.055,8608.6 C1013.055,8609.52 1013.20833,8609.98 1013.515,8609.98 C1017.04167,8609.98 1020.875,8611.245 1025.015,8613.775 C1029.155,8616.305 1033.14167,8620.48333 1036.975,8626.31 L1036.975,8626.31 L1055.145,8653.68 L1038.125,8677.37 C1034.445,8682.58333 1030.34333,8686.53167 1025.82,8689.215 C1021.29667,8691.89833 1017.11833,8693.24 1013.285,8693.24 C1012.97833,8693.24 1012.825,8693.7 1012.825,8694.62 C1012.825,8695.54 1012.97833,8696 1013.285,8696 Z" id="довольных"></path>
        </g>
    </g>
</svg>