<?xml version="1.0" encoding="UTF-8"?>
<svg width="833px" height="95px" viewBox="0 0 833 95" version="1.1" xmlns="http://www.w3.org/2000/svg" xmlns:xlink="http://www.w3.org/1999/xlink">
    <title>клиентов</title>
    <g id="Page-1" stroke="none" stroke-width="1" fill="none" fill-rule="evenodd">
        <g id="Custom-Preset-Copy-38" transform="translate(-359.000000, -8777.000000)" fill="#000000" fill-rule="nonzero">
            <path d="M359.855,8869 C363.688333,8869 366.678333,8868.92333 368.825,8868.77 L368.825,8868.77 L380.785,8868.54 L392.055,8868.77 C394.201667,8868.92333 397.191667,8869 401.025,8869 C401.331667,8869 401.485,8868.54 401.485,8867.62 C401.485,8866.7 401.331667,8866.24 401.025,8866.24 C396.425,8866.24 393.09,8865.85667 391.02,8865.09 C388.95,8864.32333 387.57,8862.82833 386.88,8860.605 C386.19,8858.38167 385.845,8854.97 385.845,8850.37 L385.845,8850.37 L385.845,8825.07 C386.918333,8824.91667 388.451667,8824.84 390.445,8824.84 C394.738333,8824.84 398.265,8825.415 401.025,8826.565 C403.785,8827.715 406.468333,8829.82333 409.075,8832.89 C411.681667,8835.95667 414.901667,8840.63333 418.735,8846.92 C422.261667,8852.9 424.945,8857.65333 426.785,8861.18 C428.625,8864.70667 429.775,8866.89167 430.235,8867.735 C430.695,8868.57833 431.385,8869 432.305,8869 L432.305,8869 L457.145,8869 C457.451667,8869 457.605,8868.54 457.605,8867.62 C457.605,8866.7 457.451667,8866.24 457.145,8866.24 C453.005,8866.08667 449.631667,8865.32 447.025,8863.94 C444.418333,8862.56 442.195,8860.64333 440.355,8858.19 C438.515,8855.73667 436.061667,8851.98 432.995,8846.92 L432.995,8846.92 L430.005,8842.32 C425.098333,8834.5 421.303333,8829.17167 418.62,8826.335 C415.936667,8823.49833 412.601667,8821.69667 408.615,8820.93 C410.761667,8819.09 413.215,8815.71667 415.975,8810.81 C418.888333,8805.59667 421.84,8800.88167 424.83,8796.665 C427.82,8792.44833 430.158333,8790.34 431.845,8790.34 C432.611667,8790.34 433.838333,8790.83833 435.525,8791.835 C437.211667,8792.83167 438.821667,8793.33 440.355,8793.33 C442.961667,8793.33 445.031667,8792.56333 446.565,8791.03 C448.098333,8789.49667 448.865,8787.65667 448.865,8785.51 C448.865,8783.51667 448.021667,8781.79167 446.335,8780.335 C444.648333,8778.87833 442.271667,8778.15 439.205,8778.15 C434.451667,8778.15 430.656667,8779.83667 427.82,8783.21 C424.983333,8786.58333 421.495,8792.41 417.355,8800.69 L417.355,8800.69 L412.755,8809.89 C410.915,8813.26333 409.075,8815.87 407.235,8817.71 C405.395,8819.55 403.325,8820.47 401.025,8820.47 L401.025,8820.47 L392.975,8820.7 C390.215,8821.00667 387.838333,8821.16 385.845,8821.16 L385.845,8821.16 L385.845,8799.31 C385.845,8794.71 386.266667,8791.29833 387.11,8789.075 C387.953333,8786.85167 389.601667,8785.28 392.055,8784.36 C394.508333,8783.44 398.341667,8782.98 403.555,8782.98 C404.015,8782.98 404.245,8782.52 404.245,8781.6 C404.245,8780.68 404.015,8780.22 403.555,8780.22 C399.415,8780.22 396.118333,8780.29667 393.665,8780.45 L393.665,8780.45 L380.785,8780.68 L368.825,8780.45 C366.678333,8780.29667 363.765,8780.22 360.085,8780.22 C359.625,8780.22 359.395,8780.68 359.395,8781.6 C359.395,8782.52 359.625,8782.98 360.085,8782.98 C364.531667,8782.98 367.79,8783.36333 369.86,8784.13 C371.93,8784.89667 373.31,8786.39167 374,8788.615 C374.69,8790.83833 375.035,8794.25 375.035,8798.85 L375.035,8798.85 L375.035,8850.37 C375.035,8854.97 374.69,8858.38167 374,8860.605 C373.31,8862.82833 371.93,8864.32333 369.86,8865.09 C367.79,8865.85667 364.455,8866.24 359.855,8866.24 C359.395,8866.24 359.165,8866.7 359.165,8867.62 C359.165,8868.54 359.395,8869 359.855,8869 Z M470.255,8870.84 C477.921667,8870.84 484.016667,8867.275 488.54,8860.145 C493.063333,8853.015 496.36,8844.62 498.43,8834.96 C500.5,8825.3 502.455,8813.26333 504.295,8798.85 C504.908333,8794.40333 505.56,8791.26 506.25,8789.42 C506.94,8787.58 508.128333,8786.315 509.815,8785.625 C511.501667,8784.935 514.185,8784.59 517.865,8784.59 L517.865,8784.59 L519.015,8784.59 C523.461667,8784.59 526.375,8784.82 527.755,8785.28 C529.135,8785.74 530.016667,8786.81333 530.4,8788.5 C530.783333,8790.18667 530.975,8793.63667 530.975,8798.85 L530.975,8798.85 L530.975,8850.37 C530.975,8855.43 530.591667,8858.995 529.825,8861.065 C529.058333,8863.135 527.755,8864.43833 525.915,8864.975 C524.075,8865.51167 520.701667,8865.93333 515.795,8866.24 C515.335,8866.24 515.105,8866.7 515.105,8867.62 C515.105,8868.54 515.335,8869 515.795,8869 C519.475,8869 522.388333,8868.92333 524.535,8868.77 L524.535,8868.77 L536.725,8868.54 L547.995,8868.77 C550.141667,8868.92333 553.131667,8869 556.965,8869 C557.271667,8869 557.425,8868.54 557.425,8867.62 C557.425,8866.7 557.271667,8866.24 556.965,8866.24 C552.058333,8865.93333 548.685,8865.51167 546.845,8864.975 C545.005,8864.43833 543.701667,8863.135 542.935,8861.065 C542.168333,8858.995 541.785,8855.43 541.785,8850.37 L541.785,8850.37 L541.785,8799.31 C541.785,8794.09667 542.206667,8790.41667 543.05,8788.27 C543.893333,8786.12333 545.235,8784.78167 547.075,8784.245 C548.915,8783.70833 552.211667,8783.28667 556.965,8782.98 C557.271667,8782.98 557.425,8782.52 557.425,8781.6 C557.425,8780.68 557.271667,8780.22 556.965,8780.22 L556.965,8780.22 L480.835,8780.22 C480.375,8780.22 480.145,8780.68 480.145,8781.6 C480.145,8782.52 480.375,8782.98 480.835,8782.98 C486.048333,8783.28667 489.805,8783.70833 492.105,8784.245 C494.405,8784.78167 495.976667,8785.74 496.82,8787.12 C497.663333,8788.5 498.085,8790.8 498.085,8794.02 C498.085,8803.52667 497.165,8813.14833 495.325,8822.885 C493.485,8832.62167 490.725,8840.78667 487.045,8847.38 C483.365,8853.97333 478.765,8857.27 473.245,8857.27 C472.018333,8857.27 470.906667,8857.155 469.91,8856.925 C468.913333,8856.695 467.955,8856.58 467.035,8856.58 C465.195,8856.58 463.661667,8857.27 462.435,8858.65 C461.208333,8860.03 460.595,8861.79333 460.595,8863.94 C460.595,8866.08667 461.438333,8867.77333 463.125,8869 C464.811667,8870.22667 467.188333,8870.84 470.255,8870.84 Z M571.455,8869 C575.288333,8869 578.278333,8868.92333 580.425,8868.77 L580.425,8868.77 L592.385,8868.54 L603.655,8868.77 C605.801667,8868.92333 608.791667,8869 612.625,8869 C612.931667,8869 613.085,8868.54 613.085,8867.62 C613.085,8866.7 612.931667,8866.24 612.625,8866.24 C606.491667,8866.24 602.466667,8865.39667 600.55,8863.71 C598.633333,8862.02333 597.598333,8858.42 597.445,8852.9 L597.445,8852.9 L648.505,8801.84 L648.505,8850.37 C648.505,8854.97 648.121667,8858.38167 647.355,8860.605 C646.588333,8862.82833 645.17,8864.32333 643.1,8865.09 C641.03,8865.85667 637.771667,8866.24 633.325,8866.24 C632.865,8866.24 632.635,8866.7 632.635,8867.62 C632.635,8868.54 632.865,8869 633.325,8869 C637.005,8869 639.918333,8868.92333 642.065,8868.77 L642.065,8868.77 L654.255,8868.54 L665.525,8868.77 C667.671667,8868.92333 670.661667,8869 674.495,8869 C674.801667,8869 674.955,8868.54 674.955,8867.62 C674.955,8866.7 674.801667,8866.24 674.495,8866.24 C669.895,8866.24 666.56,8865.85667 664.49,8865.09 C662.42,8864.32333 661.04,8862.82833 660.35,8860.605 C659.66,8858.38167 659.315,8854.97 659.315,8850.37 L659.315,8850.37 L659.315,8799.31 C659.315,8794.71 659.698333,8791.29833 660.465,8789.075 C661.231667,8786.85167 662.65,8785.28 664.72,8784.36 C666.79,8783.44 670.048333,8782.98 674.495,8782.98 C674.801667,8782.98 674.955,8782.52 674.955,8781.6 C674.955,8780.68 674.801667,8780.22 674.495,8780.22 C670.815,8780.22 667.901667,8780.29667 665.755,8780.45 L665.755,8780.45 L654.255,8780.68 L642.295,8780.45 C640.148333,8780.29667 637.235,8780.22 633.555,8780.22 C633.095,8780.22 632.865,8780.68 632.865,8781.6 C632.865,8782.52 633.095,8782.98 633.555,8782.98 C637.695,8782.98 640.761667,8783.325 642.755,8784.015 C644.748333,8784.705 646.166667,8785.93167 647.01,8787.695 C647.853333,8789.45833 648.351667,8792.18 648.505,8795.86 L648.505,8795.86 L597.445,8846.92 L597.445,8799.31 C597.445,8794.71 597.828333,8791.29833 598.595,8789.075 C599.361667,8786.85167 600.78,8785.28 602.85,8784.36 C604.92,8783.44 608.178333,8782.98 612.625,8782.98 C612.931667,8782.98 613.085,8782.52 613.085,8781.6 C613.085,8780.68 612.931667,8780.22 612.625,8780.22 C608.945,8780.22 606.031667,8780.29667 603.885,8780.45 L603.885,8780.45 L592.385,8780.68 L580.425,8780.45 C578.278333,8780.29667 575.365,8780.22 571.685,8780.22 C571.225,8780.22 570.995,8780.68 570.995,8781.6 C570.995,8782.52 571.225,8782.98 571.685,8782.98 C576.131667,8782.98 579.39,8783.36333 581.46,8784.13 C583.53,8784.89667 584.91,8786.39167 585.6,8788.615 C586.29,8790.83833 586.635,8794.25 586.635,8798.85 L586.635,8798.85 L586.635,8850.37 C586.635,8854.97 586.29,8858.38167 585.6,8860.605 C584.91,8862.82833 583.53,8864.32333 581.46,8865.09 C579.39,8865.85667 576.055,8866.24 571.455,8866.24 C570.995,8866.24 570.765,8866.7 570.765,8867.62 C570.765,8868.54 570.995,8869 571.455,8869 Z M732.455,8871.76 C744.261667,8871.76 755.225,8867.46667 765.345,8858.88 C765.651667,8858.42 765.613333,8857.92167 765.23,8857.385 C764.846667,8856.84833 764.425,8856.58 763.965,8856.58 L763.965,8856.58 L763.735,8856.58 C756.835,8861.79333 748.861667,8864.4 739.815,8864.4 C728.468333,8864.4 719.536667,8860.18333 713.02,8851.75 C706.503333,8843.31667 703.245,8832.35333 703.245,8818.86 C703.245,8814.72 703.628333,8810.50333 704.395,8806.21 L704.395,8806.21 L761.435,8805.98 C762.508333,8805.98 763.236667,8805.59667 763.62,8804.83 C764.003333,8804.06333 764.195,8802.76 764.195,8800.92 C764.195,8793.86667 761.971667,8788.30833 757.525,8784.245 C753.078333,8780.18167 746.868333,8778.15 738.895,8778.15 C729.848333,8778.15 721.606667,8780.335 714.17,8784.705 C706.733333,8789.075 700.868333,8795.01667 696.575,8802.53 C692.281667,8810.04333 690.135,8818.4 690.135,8827.6 C690.135,8835.42 691.745,8842.665 694.965,8849.335 C698.185,8856.005 703.015,8861.41 709.455,8865.55 C715.895,8869.69 723.561667,8871.76 732.455,8871.76 Z M705.085,8803.68 C706.925,8796.93333 710.03,8791.75833 714.4,8788.155 C718.77,8784.55167 724.328333,8782.75 731.075,8782.75 C736.901667,8782.75 741.578333,8784.475 745.105,8787.925 C748.631667,8791.375 750.395,8796.24333 750.395,8802.53 L750.395,8802.53 L705.085,8803.68 Z M782.135,8869 C785.968333,8869 788.958333,8868.92333 791.105,8868.77 L791.105,8868.77 L803.065,8868.54 L814.335,8868.77 C816.481667,8868.92333 819.471667,8869 823.305,8869 C823.611667,8869 823.765,8868.54 823.765,8867.62 C823.765,8866.7 823.611667,8866.24 823.305,8866.24 C818.705,8866.24 815.37,8865.85667 813.3,8865.09 C811.23,8864.32333 809.85,8862.82833 809.16,8860.605 C808.47,8858.38167 808.125,8854.97 808.125,8850.37 L808.125,8850.37 L808.125,8826.68 L859.185,8826.68 L859.185,8850.37 C859.185,8854.97 858.801667,8858.38167 858.035,8860.605 C857.268333,8862.82833 855.85,8864.32333 853.78,8865.09 C851.71,8865.85667 848.451667,8866.24 844.005,8866.24 C843.545,8866.24 843.315,8866.7 843.315,8867.62 C843.315,8868.54 843.545,8869 844.005,8869 C847.685,8869 850.598333,8868.92333 852.745,8868.77 L852.745,8868.77 L864.935,8868.54 L876.205,8868.77 C878.351667,8868.92333 881.341667,8869 885.175,8869 C885.481667,8869 885.635,8868.54 885.635,8867.62 C885.635,8866.7 885.481667,8866.24 885.175,8866.24 C880.575,8866.24 877.24,8865.85667 875.17,8865.09 C873.1,8864.32333 871.72,8862.82833 871.03,8860.605 C870.34,8858.38167 869.995,8854.97 869.995,8850.37 L869.995,8850.37 L869.995,8799.31 C869.995,8794.71 870.378333,8791.29833 871.145,8789.075 C871.911667,8786.85167 873.33,8785.28 875.4,8784.36 C877.47,8783.44 880.728333,8782.98 885.175,8782.98 C885.481667,8782.98 885.635,8782.52 885.635,8781.6 C885.635,8780.68 885.481667,8780.22 885.175,8780.22 C881.495,8780.22 878.581667,8780.29667 876.435,8780.45 L876.435,8780.45 L864.935,8780.68 L852.975,8780.45 C850.828333,8780.29667 847.915,8780.22 844.235,8780.22 C843.775,8780.22 843.545,8780.68 843.545,8781.6 C843.545,8782.52 843.775,8782.98 844.235,8782.98 C848.681667,8782.98 851.94,8783.36333 854.01,8784.13 C856.08,8784.89667 857.46,8786.39167 858.15,8788.615 C858.84,8790.83833 859.185,8794.25 859.185,8798.85 L859.185,8798.85 L859.185,8822.54 L808.125,8822.54 L808.125,8799.31 C808.125,8794.71 808.508333,8791.29833 809.275,8789.075 C810.041667,8786.85167 811.46,8785.28 813.53,8784.36 C815.6,8783.44 818.858333,8782.98 823.305,8782.98 C823.611667,8782.98 823.765,8782.52 823.765,8781.6 C823.765,8780.68 823.611667,8780.22 823.305,8780.22 C819.625,8780.22 816.711667,8780.29667 814.565,8780.45 L814.565,8780.45 L803.065,8780.68 L791.105,8780.45 C788.958333,8780.29667 786.045,8780.22 782.365,8780.22 C781.905,8780.22 781.675,8780.68 781.675,8781.6 C781.675,8782.52 781.905,8782.98 782.365,8782.98 C786.811667,8782.98 790.07,8783.36333 792.14,8784.13 C794.21,8784.89667 795.59,8786.39167 796.28,8788.615 C796.97,8790.83833 797.315,8794.25 797.315,8798.85 L797.315,8798.85 L797.315,8850.37 C797.315,8854.97 796.97,8858.38167 796.28,8860.605 C795.59,8862.82833 794.21,8864.32333 792.14,8865.09 C790.07,8865.85667 786.735,8866.24 782.135,8866.24 C781.675,8866.24 781.445,8866.7 781.445,8867.62 C781.445,8868.54 781.675,8869 782.135,8869 Z M921.055,8869 C925.041667,8869 928.185,8868.92333 930.485,8868.77 L930.485,8868.77 L941.985,8868.54 L953.485,8868.77 C955.631667,8868.92333 958.545,8869 962.225,8869 C962.685,8869 962.915,8868.54 962.915,8867.62 C962.915,8866.7 962.685,8866.24 962.225,8866.24 C957.778333,8866.24 954.52,8865.85667 952.45,8865.09 C950.38,8864.32333 949,8862.82833 948.31,8860.605 C947.62,8858.38167 947.275,8854.97 947.275,8850.37 L947.275,8850.37 L947.275,8799.31 C947.275,8792.71667 948.041667,8788.385 949.575,8786.315 C951.108333,8784.245 954.405,8783.21 959.465,8783.21 C966.978333,8783.21 972.191667,8785.20333 975.105,8789.19 C978.018333,8793.17667 979.475,8800.15333 979.475,8810.12 C979.475,8810.42667 979.935,8810.58 980.855,8810.58 C981.775,8810.58 982.235,8810.42667 982.235,8810.12 L982.235,8810.12 L982.695,8795.17 C983.001667,8789.03667 983.155,8784.66667 983.155,8782.06 C983.155,8781.14 983.078333,8780.565 982.925,8780.335 C982.771667,8780.105 982.235,8779.99 981.315,8779.99 C977.941667,8779.99 974.951667,8780.06667 972.345,8780.22 L972.345,8780.22 L941.295,8780.45 L910.705,8780.22 C908.251667,8780.06667 905.415,8779.99 902.195,8779.99 C901.275,8779.99 900.738333,8780.105 900.585,8780.335 C900.431667,8780.565 900.355,8781.14 900.355,8782.06 C900.355,8785.12667 900.431667,8787.84833 900.585,8790.225 C900.738333,8792.60167 900.891667,8794.63333 901.045,8796.32 L901.045,8796.32 L901.505,8810.12 C901.505,8810.42667 901.926667,8810.58 902.77,8810.58 C903.613333,8810.58 904.035,8810.42667 904.035,8810.12 C904.035,8800.15333 905.53,8793.17667 908.52,8789.19 C911.51,8785.20333 916.685,8783.21 924.045,8783.21 C927.571667,8783.21 930.216667,8783.67 931.98,8784.59 C933.743333,8785.51 934.931667,8787.08167 935.545,8789.305 C936.158333,8791.52833 936.465,8794.86333 936.465,8799.31 L936.465,8799.31 L936.465,8850.37 C936.465,8854.97 936.081667,8858.38167 935.315,8860.605 C934.548333,8862.82833 933.13,8864.32333 931.06,8865.09 C928.99,8865.85667 925.655,8866.24 921.055,8866.24 C920.748333,8866.24 920.595,8866.7 920.595,8867.62 C920.595,8868.54 920.748333,8869 921.055,8869 Z M1044.105,8871.99 C1052.845,8871.99 1060.895,8870.07333 1068.255,8866.24 C1075.615,8862.40667 1081.48,8856.88667 1085.85,8849.68 C1090.22,8842.47333 1092.405,8834.11667 1092.405,8824.61 C1092.405,8816.48333 1090.60333,8808.77833 1087,8801.495 C1083.39667,8794.21167 1078.26,8788.34667 1071.59,8783.9 C1064.92,8779.45333 1057.13833,8777.23 1048.245,8777.23 C1040.425,8777.23 1032.79667,8778.955 1025.36,8782.405 C1017.92333,8785.855 1011.79,8791.06833 1006.96,8798.045 C1002.13,8805.02167 999.715,8813.49333 999.715,8823.46 C999.715,8832.2 1001.555,8840.28833 1005.235,8847.725 C1008.915,8855.16167 1014.12833,8861.065 1020.875,8865.435 C1027.62167,8869.805 1035.365,8871.99 1044.105,8871.99 Z M1050.545,8867.85 C1043.185,8867.85 1036.66833,8865.51167 1030.995,8860.835 C1025.32167,8856.15833 1020.875,8849.94833 1017.655,8842.205 C1014.435,8834.46167 1012.825,8825.99 1012.825,8816.79 C1012.825,8805.44333 1015.27833,8796.74167 1020.185,8790.685 C1025.09167,8784.62833 1031.915,8781.6 1040.655,8781.6 C1048.16833,8781.6 1054.83833,8783.74667 1060.665,8788.04 C1066.49167,8792.33333 1071.015,8798.19833 1074.235,8805.635 C1077.455,8813.07167 1079.065,8821.39 1079.065,8830.59 C1079.065,8843.47 1076.535,8852.9 1071.475,8858.88 C1066.415,8864.86 1059.43833,8867.85 1050.545,8867.85 Z M1157.955,8869.46 C1167.46167,8869.46 1175.35833,8866.77667 1181.645,8861.41 C1187.93167,8856.04333 1191.075,8849.22 1191.075,8840.94 C1191.075,8834.65333 1189.08167,8829.785 1185.095,8826.335 C1181.10833,8822.885 1174.975,8820.77667 1166.695,8820.01 C1171.755,8816.17667 1175.47333,8812.42 1177.85,8808.74 C1180.22667,8805.06 1181.415,8801.22667 1181.415,8797.24 C1181.415,8791.41333 1179.115,8787.04333 1174.515,8784.13 C1169.915,8781.21667 1163.32167,8779.76 1154.735,8779.76 C1151.515,8779.76 1146.99167,8779.91333 1141.165,8780.22 L1141.165,8780.22 L1129.205,8780.45 L1108.505,8780.22 C1108.045,8780.22 1107.815,8780.68 1107.815,8781.6 C1107.815,8782.52 1108.045,8782.98 1108.505,8782.98 C1112.95167,8782.98 1116.21,8783.36333 1118.28,8784.13 C1120.35,8784.89667 1121.73,8786.39167 1122.42,8788.615 C1123.11,8790.83833 1123.455,8794.25 1123.455,8798.85 L1123.455,8798.85 L1123.455,8850.37 C1123.455,8854.97 1123.11,8858.38167 1122.42,8860.605 C1121.73,8862.82833 1120.35,8864.32333 1118.28,8865.09 C1116.21,8865.85667 1112.875,8866.24 1108.275,8866.24 C1107.815,8866.24 1107.585,8866.7 1107.585,8867.62 C1107.585,8868.54 1107.815,8869 1108.275,8869 C1112.10833,8869 1115.09833,8868.92333 1117.245,8868.77 L1117.245,8868.77 L1129.205,8868.54 C1132.11833,8868.54 1137.255,8868.69333 1144.615,8869 C1151.36167,8869.30667 1155.80833,8869.46 1157.955,8869.46 Z M1162.095,8819.78 L1134.265,8819.78 L1134.265,8799.31 C1134.265,8794.55667 1134.68667,8790.99167 1135.53,8788.615 C1136.37333,8786.23833 1137.79167,8784.66667 1139.785,8783.9 C1141.77833,8783.13333 1144.76833,8782.75 1148.755,8782.75 C1155.50167,8782.75 1160.56167,8784.32167 1163.935,8787.465 C1167.30833,8790.60833 1168.995,8795.55333 1168.995,8802.3 C1168.995,8806.28667 1168.42,8809.66 1167.27,8812.42 C1166.12,8815.18 1164.395,8817.63333 1162.095,8819.78 L1162.095,8819.78 Z M1153.815,8866.01 C1145.995,8866.01 1140.78167,8864.86 1138.175,8862.56 C1135.56833,8860.26 1134.265,8856.19667 1134.265,8850.37 L1134.265,8850.37 L1134.265,8823.46 L1151.285,8823.46 C1160.485,8823.46 1167.27,8825.49167 1171.64,8829.555 C1176.01,8833.61833 1178.195,8839.17667 1178.195,8846.23 C1178.195,8859.41667 1170.06833,8866.01 1153.815,8866.01 Z" id="клиентов"></path>
        </g>
    </g>
</svg>